<svg width="83" height="40" viewBox="0 0 83 40" fill="none" xmlns="http://www.w3.org/2000/svg">
<path d="M76.4681 0.422206V16.7793H72.1698V0.422206H65.7233V39.5812H72.1698V23.2258H76.4681V39.5812H82.9146V0.422206H76.4681Z" fill="#003D3B"/>
<path d="M35.8153 6.4621C36.3851 6.46256 36.9314 6.68899 37.3344 7.09171C37.7375 7.49444 37.9644 8.04058 37.9653 8.61035V31.4035C37.9494 31.9629 37.7159 32.494 37.3146 32.884C36.9133 33.2741 36.3758 33.4922 35.8162 33.4922C35.2566 33.4922 34.719 33.2741 34.3177 32.884C33.9164 32.494 33.683 31.9629 33.667 31.4035V8.60163C33.6698 8.03353 33.8973 7.48962 34.2998 7.08873C34.7024 6.68784 35.2472 6.46255 35.8153 6.4621ZM35.8153 0.0138452C33.5378 0.015231 31.3539 0.920346 29.7431 2.53047C28.1323 4.14059 27.2263 6.32411 27.224 8.60163V31.4035C27.224 33.6831 28.1295 35.8694 29.7413 37.4815C31.353 39.0936 33.5392 39.9995 35.8188 40C38.0986 39.9995 40.2849 39.0937 41.8969 37.4816C43.509 35.8696 44.4148 33.6833 44.4153 31.4035V8.60163C44.4151 7.47249 44.1924 6.35445 43.7601 5.31135C43.3278 4.26825 42.6943 3.32052 41.8957 2.52226C41.0971 1.724 40.1491 1.09085 39.1058 0.658955C38.0626 0.227064 36.9444 0.00489032 35.8153 0.00511952V0.0138452Z" fill="#003D3B"/>
<path d="M62.6816 27.3583L53.2265 9.6138C52.9696 9.11177 52.9203 8.52893 53.0892 7.99089C53.258 7.45284 53.6315 7.00267 54.1291 6.73738C54.6267 6.47209 55.2086 6.41293 55.7494 6.57264C56.2903 6.73235 56.7467 7.09814 57.0204 7.5912L58.0081 9.44627L63.6972 6.41324L62.7043 4.55991C61.9967 3.22928 60.9517 2.10805 59.6742 1.30862C58.3966 0.509198 56.9314 0.0596739 55.4253 0.00511954H55.4026C53.8964 -0.0470565 52.4032 0.300353 51.0747 1.01206C49.0632 2.08447 47.5601 3.91188 46.8957 6.09241C46.2314 8.27295 46.4603 10.6281 47.5321 12.6399L56.9924 30.3861C57.2431 30.8875 57.288 31.467 57.1176 32.0011C56.9472 32.5351 56.5749 32.9815 56.0801 33.2451C55.5854 33.5086 55.0072 33.5685 54.4689 33.4119C53.9306 33.2554 53.4748 32.8947 53.1985 32.4069L52.1288 30.4L46.4396 33.4313L47.5094 35.44C48.2175 36.7719 49.2638 37.8938 50.5431 38.6931C51.8224 39.4923 53.2896 39.9407 54.7971 39.993H54.8198C56.3258 40.0435 57.8186 39.6962 59.1477 38.9861C61.1596 37.9137 62.6631 36.086 63.3275 33.905C63.9919 31.724 63.7627 29.3685 62.6903 27.3565" fill="#003D3B"/>
<path d="M18.0272 0.422206L12.2369 24.5137L6.44651 0.422206H0V39.5812H6.44651V24.7109L9.71688 39.5812H14.7568L18.0272 24.7109V39.5812H24.4737V0.422206H18.0272Z" fill="#003D3B"/>
</svg>
